<?xml version="1.0" encoding="utf-8"?>
<!-- Generator: Adobe Illustrator 17.0.1, SVG Export Plug-In . SVG Version: 6.00 Build 0)  -->
<!DOCTYPE svg PUBLIC "-//W3C//DTD SVG 1.1//EN" "http://www.w3.org/Graphics/SVG/1.1/DTD/svg11.dtd">
<svg version="1.1" id="Capa_1" xmlns="http://www.w3.org/2000/svg" xmlns:xlink="http://www.w3.org/1999/xlink" x="0px" y="0px"
	 width="72.68px" height="50.661px" viewBox="0 0 72.68 50.661" enable-background="new 0 0 72.68 50.661" xml:space="preserve">
<g id="Capa_x0020_1">
	<path fill="#ED3237" d="M71.405,8.142c-0.879-3.855-4.054-6.718-7.852-7.143c-9.014-0.992-18.142-1.02-27.213-0.992
		c-9.071,0-18.198,0-27.213,0.992C5.329,1.424,2.154,4.287,1.275,8.142c-1.276,5.499-1.276,11.509-1.276,17.178
		s0,11.679,1.276,17.178c0.879,3.855,4.054,6.718,7.852,7.143c9.014,1.02,18.142,1.02,27.213,1.02s18.198,0,27.213-1.02
		c3.798-0.425,6.973-3.288,7.852-7.143c1.276-5.499,1.276-11.509,1.276-17.178s0-11.679-1.247-17.178
		C71.434,8.142,71.405,8.142,71.405,8.142z M26.958,36.602c0-8.05,0-15.987,0-24.038c7.71,4.025,15.364,8.022,23.102,12.047
		C42.322,28.608,34.697,32.577,26.958,36.602z"/>
</g>
</svg>
